<mxfile host="Electron" modified="2024-06-08T13:39:10.864Z" agent="Mozilla/5.0 (X11; Linux x86_64) AppleWebKit/537.36 (KHTML, like Gecko) draw.io/24.4.8 Chrome/124.0.6367.207 Electron/30.0.6 Safari/537.36" etag="KQLFOQwr-GhG0zIVP9wu" version="24.3.1" type="device">
  <diagram name="Page-1" id="RLEKTi60ZdWloyCEpr0X">
    <mxGraphModel dx="2280" dy="849" grid="1" gridSize="10" guides="1" tooltips="1" connect="1" arrows="1" fold="1" page="1" pageScale="1" pageWidth="850" pageHeight="1100" math="0" shadow="0">
      <root>
        <mxCell id="0" />
        <mxCell id="1" parent="0" />
        <mxCell id="I396d66oS9yia68oeNcV-12" style="edgeStyle=orthogonalEdgeStyle;rounded=0;orthogonalLoop=1;jettySize=auto;html=1;exitX=1;exitY=0.5;exitDx=0;exitDy=0;" parent="1" source="I396d66oS9yia68oeNcV-9" target="I396d66oS9yia68oeNcV-11" edge="1">
          <mxGeometry relative="1" as="geometry" />
        </mxCell>
        <mxCell id="I396d66oS9yia68oeNcV-13" style="edgeStyle=orthogonalEdgeStyle;rounded=0;orthogonalLoop=1;jettySize=auto;html=1;exitX=1;exitY=0.5;exitDx=0;exitDy=0;entryX=0;entryY=0.5;entryDx=0;entryDy=0;" parent="1" source="I396d66oS9yia68oeNcV-9" target="I396d66oS9yia68oeNcV-10" edge="1">
          <mxGeometry relative="1" as="geometry" />
        </mxCell>
        <mxCell id="I396d66oS9yia68oeNcV-21" style="edgeStyle=orthogonalEdgeStyle;rounded=0;orthogonalLoop=1;jettySize=auto;html=1;exitX=1;exitY=0.5;exitDx=0;exitDy=0;entryX=0;entryY=0.5;entryDx=0;entryDy=0;" parent="1" source="I396d66oS9yia68oeNcV-9" target="I396d66oS9yia68oeNcV-20" edge="1">
          <mxGeometry relative="1" as="geometry" />
        </mxCell>
        <mxCell id="I396d66oS9yia68oeNcV-9" value="drop(serial_number, s9_power_on_hours,date)" style="rounded=0;whiteSpace=wrap;html=1;" parent="1" vertex="1">
          <mxGeometry x="80" y="220" width="160" height="60" as="geometry" />
        </mxCell>
        <mxCell id="I396d66oS9yia68oeNcV-15" style="edgeStyle=orthogonalEdgeStyle;rounded=0;orthogonalLoop=1;jettySize=auto;html=1;exitX=1;exitY=0.5;exitDx=0;exitDy=0;entryX=0;entryY=0.5;entryDx=0;entryDy=0;" parent="1" source="I396d66oS9yia68oeNcV-10" target="I396d66oS9yia68oeNcV-14" edge="1">
          <mxGeometry relative="1" as="geometry" />
        </mxCell>
        <mxCell id="I396d66oS9yia68oeNcV-10" value="groupBy(model)" style="rounded=0;whiteSpace=wrap;html=1;" parent="1" vertex="1">
          <mxGeometry x="300" y="120" width="110" height="60" as="geometry" />
        </mxCell>
        <mxCell id="I396d66oS9yia68oeNcV-23" style="edgeStyle=orthogonalEdgeStyle;rounded=0;orthogonalLoop=1;jettySize=auto;html=1;exitX=1;exitY=0.5;exitDx=0;exitDy=0;entryX=0;entryY=0.5;entryDx=0;entryDy=0;" parent="1" source="I396d66oS9yia68oeNcV-11" target="I396d66oS9yia68oeNcV-22" edge="1">
          <mxGeometry relative="1" as="geometry" />
        </mxCell>
        <mxCell id="I396d66oS9yia68oeNcV-11" value="groupBy(vault_id)" style="rounded=0;whiteSpace=wrap;html=1;" parent="1" vertex="1">
          <mxGeometry x="300" y="220" width="110" height="60" as="geometry" />
        </mxCell>
        <mxCell id="I396d66oS9yia68oeNcV-17" style="edgeStyle=orthogonalEdgeStyle;rounded=0;orthogonalLoop=1;jettySize=auto;html=1;exitX=1;exitY=0.5;exitDx=0;exitDy=0;entryX=0;entryY=0.5;entryDx=0;entryDy=0;" parent="1" source="I396d66oS9yia68oeNcV-14" target="I396d66oS9yia68oeNcV-16" edge="1">
          <mxGeometry relative="1" as="geometry" />
        </mxCell>
        <mxCell id="I396d66oS9yia68oeNcV-14" value="agg(sum(failure))" style="rounded=0;whiteSpace=wrap;html=1;" parent="1" vertex="1">
          <mxGeometry x="450" y="120" width="110" height="60" as="geometry" />
        </mxCell>
        <mxCell id="I396d66oS9yia68oeNcV-19" style="edgeStyle=orthogonalEdgeStyle;rounded=0;orthogonalLoop=1;jettySize=auto;html=1;exitX=1;exitY=0.5;exitDx=0;exitDy=0;entryX=0;entryY=0.5;entryDx=0;entryDy=0;" parent="1" source="I396d66oS9yia68oeNcV-16" target="I396d66oS9yia68oeNcV-18" edge="1">
          <mxGeometry relative="1" as="geometry" />
        </mxCell>
        <mxCell id="I396d66oS9yia68oeNcV-16" value="orderBy(failure,desc)" style="rounded=0;whiteSpace=wrap;html=1;" parent="1" vertex="1">
          <mxGeometry x="600" y="120" width="130" height="60" as="geometry" />
        </mxCell>
        <mxCell id="I396d66oS9yia68oeNcV-32" style="edgeStyle=orthogonalEdgeStyle;rounded=0;orthogonalLoop=1;jettySize=auto;html=1;exitX=1;exitY=0.5;exitDx=0;exitDy=0;entryX=0;entryY=0.5;entryDx=0;entryDy=0;" parent="1" source="I396d66oS9yia68oeNcV-18" target="I396d66oS9yia68oeNcV-34" edge="1">
          <mxGeometry relative="1" as="geometry">
            <mxPoint x="890" y="150.1428571428571" as="targetPoint" />
          </mxGeometry>
        </mxCell>
        <mxCell id="I396d66oS9yia68oeNcV-18" value="limit(10)" style="rounded=0;whiteSpace=wrap;html=1;" parent="1" vertex="1">
          <mxGeometry x="770" y="120" width="70" height="60" as="geometry" />
        </mxCell>
        <mxCell id="I396d66oS9yia68oeNcV-25" style="edgeStyle=orthogonalEdgeStyle;rounded=0;orthogonalLoop=1;jettySize=auto;html=1;exitX=1;exitY=0.5;exitDx=0;exitDy=0;entryX=0;entryY=0.5;entryDx=0;entryDy=0;" parent="1" source="I396d66oS9yia68oeNcV-20" target="I396d66oS9yia68oeNcV-24" edge="1">
          <mxGeometry relative="1" as="geometry" />
        </mxCell>
        <mxCell id="I396d66oS9yia68oeNcV-20" value="filter(failure==1)" style="rounded=0;whiteSpace=wrap;html=1;" parent="1" vertex="1">
          <mxGeometry x="300" y="320" width="110" height="60" as="geometry" />
        </mxCell>
        <mxCell id="I396d66oS9yia68oeNcV-29" style="edgeStyle=orthogonalEdgeStyle;rounded=0;orthogonalLoop=1;jettySize=auto;html=1;exitX=1;exitY=0.5;exitDx=0;exitDy=0;entryX=0;entryY=0.5;entryDx=0;entryDy=0;" parent="1" source="I396d66oS9yia68oeNcV-22" target="I396d66oS9yia68oeNcV-28" edge="1">
          <mxGeometry relative="1" as="geometry" />
        </mxCell>
        <mxCell id="I396d66oS9yia68oeNcV-22" value="agg(sum(failure))" style="rounded=0;whiteSpace=wrap;html=1;" parent="1" vertex="1">
          <mxGeometry x="450" y="220" width="110" height="60" as="geometry" />
        </mxCell>
        <mxCell id="I396d66oS9yia68oeNcV-27" style="edgeStyle=orthogonalEdgeStyle;rounded=0;orthogonalLoop=1;jettySize=auto;html=1;exitX=1;exitY=0.5;exitDx=0;exitDy=0;entryX=0;entryY=0.5;entryDx=0;entryDy=0;" parent="1" source="I396d66oS9yia68oeNcV-24" target="I396d66oS9yia68oeNcV-26" edge="1">
          <mxGeometry relative="1" as="geometry" />
        </mxCell>
        <mxCell id="I396d66oS9yia68oeNcV-24" value="groupBy(vault_id)" style="rounded=0;whiteSpace=wrap;html=1;" parent="1" vertex="1">
          <mxGeometry x="450" y="320" width="110" height="60" as="geometry" />
        </mxCell>
        <mxCell id="Fsiuv0y5IQ70EbiQ7qJU-1" style="edgeStyle=orthogonalEdgeStyle;rounded=0;orthogonalLoop=1;jettySize=auto;html=1;exitX=0.5;exitY=0;exitDx=0;exitDy=0;entryX=0.5;entryY=1;entryDx=0;entryDy=0;" parent="1" source="I396d66oS9yia68oeNcV-26" target="I396d66oS9yia68oeNcV-28" edge="1">
          <mxGeometry relative="1" as="geometry" />
        </mxCell>
        <mxCell id="I396d66oS9yia68oeNcV-26" value="agg(collect_set(model))" style="rounded=0;whiteSpace=wrap;html=1;" parent="1" vertex="1">
          <mxGeometry x="595" y="320" width="140" height="60" as="geometry" />
        </mxCell>
        <mxCell id="tEQgFmu9S2hH8xUCaB2Q-2" style="edgeStyle=orthogonalEdgeStyle;rounded=0;orthogonalLoop=1;jettySize=auto;html=1;exitX=1;exitY=0.5;exitDx=0;exitDy=0;entryX=0;entryY=0.5;entryDx=0;entryDy=0;" edge="1" parent="1" source="I396d66oS9yia68oeNcV-28" target="tEQgFmu9S2hH8xUCaB2Q-1">
          <mxGeometry relative="1" as="geometry" />
        </mxCell>
        <mxCell id="I396d66oS9yia68oeNcV-28" value="join(on=vault_id)" style="rounded=0;whiteSpace=wrap;html=1;" parent="1" vertex="1">
          <mxGeometry x="615" y="220" width="100" height="60" as="geometry" />
        </mxCell>
        <mxCell id="I396d66oS9yia68oeNcV-34" value="show" style="ellipse;whiteSpace=wrap;html=1;aspect=fixed;" parent="1" vertex="1">
          <mxGeometry x="880" y="125" width="50" height="50" as="geometry" />
        </mxCell>
        <mxCell id="I396d66oS9yia68oeNcV-35" value="show" style="ellipse;whiteSpace=wrap;html=1;aspect=fixed;" parent="1" vertex="1">
          <mxGeometry x="1010" y="225" width="50" height="50" as="geometry" />
        </mxCell>
        <mxCell id="I396d66oS9yia68oeNcV-37" value="" style="endArrow=classic;html=1;rounded=0;entryX=0;entryY=0.5;entryDx=0;entryDy=0;exitX=1;exitY=0.5;exitDx=0;exitDy=0;" parent="1" source="I396d66oS9yia68oeNcV-39" target="I396d66oS9yia68oeNcV-9" edge="1">
          <mxGeometry width="50" height="50" relative="1" as="geometry">
            <mxPoint x="30" y="250" as="sourcePoint" />
            <mxPoint x="520" y="240" as="targetPoint" />
          </mxGeometry>
        </mxCell>
        <mxCell id="I396d66oS9yia68oeNcV-39" value="read(hdfs_path)" style="rounded=0;whiteSpace=wrap;html=1;" parent="1" vertex="1">
          <mxGeometry x="-60" y="220" width="100" height="60" as="geometry" />
        </mxCell>
        <mxCell id="tEQgFmu9S2hH8xUCaB2Q-4" style="edgeStyle=orthogonalEdgeStyle;rounded=0;orthogonalLoop=1;jettySize=auto;html=1;exitX=1;exitY=0.5;exitDx=0;exitDy=0;entryX=0;entryY=0.5;entryDx=0;entryDy=0;" edge="1" parent="1" source="Fsiuv0y5IQ70EbiQ7qJU-2" target="I396d66oS9yia68oeNcV-35">
          <mxGeometry relative="1" as="geometry" />
        </mxCell>
        <mxCell id="Fsiuv0y5IQ70EbiQ7qJU-2" value="limit(10)" style="rounded=0;whiteSpace=wrap;html=1;" parent="1" vertex="1">
          <mxGeometry x="910" y="220" width="70" height="60" as="geometry" />
        </mxCell>
        <mxCell id="tEQgFmu9S2hH8xUCaB2Q-3" style="edgeStyle=orthogonalEdgeStyle;rounded=0;orthogonalLoop=1;jettySize=auto;html=1;exitX=1;exitY=0.5;exitDx=0;exitDy=0;" edge="1" parent="1" source="tEQgFmu9S2hH8xUCaB2Q-1" target="Fsiuv0y5IQ70EbiQ7qJU-2">
          <mxGeometry relative="1" as="geometry" />
        </mxCell>
        <mxCell id="tEQgFmu9S2hH8xUCaB2Q-1" value="orderBy(failure,desc)" style="rounded=0;whiteSpace=wrap;html=1;" vertex="1" parent="1">
          <mxGeometry x="750" y="220" width="130" height="60" as="geometry" />
        </mxCell>
      </root>
    </mxGraphModel>
  </diagram>
</mxfile>
